<svg xmlns="http://www.w3.org/2000/svg" version="1.1" xmlns:xlink="http://www.w3.org/1999/xlink" xmlns:svgjs="http://svgjs.dev/svgjs" width="1000" height="1000"><g clip-path="url(#SvgjsClipPath1533)"><rect width="1000" height="1000" fill="#141c24"></rect><g transform="matrix(12.40694829347396,0,0,12.40694829347396,150,279.5285231455175)"><svg xmlns="http://www.w3.org/2000/svg" version="1.1" xmlns:xlink="http://www.w3.org/1999/xlink" xmlns:svgjs="http://svgjs.dev/svgjs" width="56.41999816894531" height="35.540000915527344"><svg xmlns="http://www.w3.org/2000/svg" viewBox="3.5900001525878906 16.850000381469727 56.41999816894531 35.540000915527344" data-asc="1.0478515625"><g fill="#57c181"><g fill="#57c181" transform="translate(0, 0)"><path d="M3.59 52.39L15.89 52.39Q18.53 52.39 20.79 51.72Q23.05 51.05 24.68 49.73Q26.32 48.44 27.25 46.51Q28.17 44.58 28.15 42.04Q28.15 40.60 27.75 39.29Q27.34 37.99 26.56 36.91Q25.81 35.91 24.68 35.12Q23.56 34.33 21.97 33.91L21.97 33.86Q23.05 33.42 23.86 32.87Q24.68 32.32 25.34 31.59Q26.27 30.59 26.77 29.28Q27.27 27.98 27.29 26.46Q27.29 23.97 26.35 22.16Q25.42 20.34 23.75 19.17Q22.09 17.99 19.82 17.42Q17.55 16.85 14.97 16.85L3.59 16.85L3.59 52.39M9.50 36.33L16.24 36.33Q17.68 36.35 18.80 36.76Q19.92 37.16 20.70 37.89Q21.48 38.62 21.88 39.66Q22.27 40.70 22.27 42.04Q22.27 43.31 21.79 44.35Q21.31 45.39 20.43 46.09Q19.63 46.78 18.48 47.17Q17.33 47.56 15.94 47.56L9.50 47.56L9.50 36.33M9.50 31.86L9.50 21.70L15.04 21.70Q16.55 21.73 17.80 22.06Q19.04 22.39 19.87 23.12Q20.61 23.71 21.01 24.62Q21.41 25.54 21.41 26.78Q21.41 27.95 20.97 28.86Q20.53 29.76 19.78 30.40Q18.95 31.10 17.74 31.47Q16.53 31.84 15.09 31.86L9.50 31.86ZM43.36 36.99L52.98 52.39L60.01 52.39L47.24 32.50L59.40 16.85L52.22 16.85L42.85 29.25L39.53 33.57L39.53 16.85L33.59 16.85L33.59 52.39L39.53 52.39L39.53 41.28L43.36 36.99Z"></path></g></g></svg></svg></g></g><defs><clipPath id="SvgjsClipPath1533"><rect width="1000" height="1000" x="0" y="0" rx="150" ry="150"></rect></clipPath></defs></svg>