<svg xmlns="http://www.w3.org/2000/svg" version="1.1" xmlns:xlink="http://www.w3.org/1999/xlink" xmlns:svgjs="http://svgjs.dev/svgjs" width="1000" height="1000"><g clip-path="url(#SvgjsClipPath1307)"><rect width="1000" height="1000" fill="#1e1e24"></rect><g transform="matrix(1.7338797944485504,0,0,1.7338797944485504,112.58103178851871,99.99999999999997)"><svg xmlns="http://www.w3.org/2000/svg" version="1.1" xmlns:xlink="http://www.w3.org/1999/xlink" xmlns:svgjs="http://svgjs.dev/svgjs" width="446.881" height="461.393"><svg id="Layer_1" data-name="Layer 1" xmlns="http://www.w3.org/2000/svg" width="446.881" height="461.393" viewBox="0 0 446.881 461.393">
  <g>
    <path d="M111.73,239.307H6.967V-.004h93.123C116.293-.004,130.271,1.938,142.029,5.817c11.753,3.884,20.595,9.131,26.533,15.749,10.726,12.325,16.091,26.25,16.091,41.768,0,18.718-6.05,32.642-18.145,41.768-4.108,3.199-6.965,5.194-8.559,5.991-1.6.803-4.451,2.113-8.559,3.938,14.834,3.199,26.646,9.875,35.435,20.028,8.784,10.159,13.181,22.767,13.181,37.831,0,16.663-5.708,31.385-17.118,44.165-13.24,14.839-36.29,22.253-69.157,22.253ZM60.376,96.884h25.334c14.834,0,25.848-1.594,33.038-4.793,7.189-3.193,10.784-10.1,10.784-20.713s-3.311-17.631-9.928-21.055c-6.623-3.423-17.803-5.135-33.552-5.135h-25.677v51.696ZM60.376,194.115h36.632c15.289,0,26.758-1.883,34.407-5.649,7.645-3.766,11.469-11.18,11.469-22.253s-4.055-18.37-12.154-21.911c-8.104-3.536-21.055-5.307-38.858-5.307h-31.497v55.12Z" fill="#e2e2e2"></path>
    <path d="M225.735-.004h53.408v98.258L369.526-.004h66.076l-95.176,105.79c8.217,11.416,23.393,32.696,45.533,63.851,22.137,31.155,38.688,54.381,49.643,69.67h-62.309l-70.186-94.492-23.965,26.704v67.788h-53.408V-.004Z" fill="#e2e2e2"></path>
  </g>
  <g>
    <circle cx="98.774" cy="362.623" r="82.77" fill="none" stroke="#e2e2e2" stroke-miterlimit="10" stroke-width="32"></circle>
    <line x1="430.881" y1="362.623" x2="181.544" y2="362.623" fill="none" stroke="#e2e2e2" stroke-linecap="round" stroke-miterlimit="10" stroke-width="32"></line>
    <line x1="398.454" y1="300.244" x2="398.454" y2="355.224" fill="none" stroke="#e2e2e2" stroke-linecap="round" stroke-miterlimit="10" stroke-width="32"></line>
    <line x1="341.438" y1="317.416" x2="341.438" y2="351.985" fill="none" stroke="#e2e2e2" stroke-linecap="round" stroke-miterlimit="10" stroke-width="32"></line>
  </g>
</svg></svg></g></g><defs><clipPath id="SvgjsClipPath1307"><rect width="1000" height="1000" x="0" y="0" rx="100" ry="100"></rect></clipPath></defs></svg>