<svg xmlns="http://www.w3.org/2000/svg" viewBox="3.9600000381469727 16.850000381469727 141.95999145507812 38.59000015258789" data-asc="1.0478515625"><g fill="#86efac"><g fill="#86efac" transform="translate(0, 0)"><path d="M25.17 48.34L25.17 42.50L11.13 37.48L9.64 36.96L11.13 36.43L25.17 31.35L25.17 25.51L3.96 34.57L3.96 39.26L25.17 48.34ZM33.59 52.39L45.90 52.39Q48.54 52.39 50.79 51.72Q53.05 51.05 54.69 49.73Q56.32 48.44 57.25 46.51Q58.18 44.58 58.15 42.04Q58.15 40.60 57.75 39.29Q57.35 37.99 56.57 36.91Q55.81 35.91 54.69 35.12Q53.56 34.33 51.98 33.91L51.98 33.86Q53.05 33.42 53.87 32.87Q54.69 32.32 55.35 31.59Q56.27 30.59 56.77 29.28Q57.28 27.98 57.30 26.46Q57.30 23.97 56.36 22.16Q55.42 20.34 53.76 19.17Q52.10 17.99 49.83 17.42Q47.56 16.85 44.97 16.85L33.59 16.85L33.59 52.39M39.50 36.33L46.24 36.33Q47.68 36.35 48.80 36.76Q49.93 37.16 50.71 37.89Q51.49 38.62 51.88 39.66Q52.27 40.70 52.27 42.04Q52.27 43.31 51.79 44.35Q51.32 45.39 50.44 46.09Q49.63 46.78 48.49 47.17Q47.34 47.56 45.95 47.56L39.50 47.56L39.50 36.33M39.50 31.86L39.50 21.70L45.04 21.70Q46.56 21.73 47.80 22.06Q49.05 22.39 49.88 23.12Q50.61 23.71 51.01 24.62Q51.42 25.54 51.42 26.78Q51.42 27.95 50.98 28.86Q50.54 29.76 49.78 30.40Q48.95 31.10 47.74 31.47Q46.53 31.84 45.09 31.86L39.50 31.86ZM73.36 36.99L82.98 52.39L90.01 52.39L77.25 32.50L89.40 16.85L82.23 16.85L72.85 29.25L69.53 33.57L69.53 16.85L63.60 16.85L63.60 52.39L69.53 52.39L69.53 41.28L73.36 36.99ZM101.07 55.44L115.01 16.85L109.67 16.85L95.70 55.44L101.07 55.44ZM124.12 48.34L145.92 39.26L145.92 34.55L124.12 25.49L124.12 31.27L138.89 36.40L140.36 36.89L138.87 37.33L124.12 42.55L124.12 48.34Z"/></g></g></svg>