<?xml version="1.0" encoding="UTF-8"?>
<svg id="Layer_1" data-name="Layer 1" xmlns="http://www.w3.org/2000/svg" width="298.77" height="25.98" viewBox="0 0 298.77 25.98">
  <g>
    <g>
      <path d="M81.64,24.12h-9.51V2.39h8.46c1.47,0,2.74.18,3.81.53s1.87.83,2.41,1.43c.97,1.12,1.46,2.38,1.46,3.79,0,1.7-.55,2.96-1.65,3.79-.37.29-.63.47-.78.54s-.4.19-.78.36c1.35.29,2.42.9,3.22,1.82s1.2,2.07,1.2,3.44c0,1.51-.52,2.85-1.55,4.01-1.2,1.35-3.3,2.02-6.28,2.02,0,0-.01,0-.01,0ZM76.98,11.19h2.3c1.35,0,2.35-.14,3-.44.65-.29.98-.92.98-1.88s-.3-1.6-.9-1.91-1.62-.47-3.05-.47h-2.33s0,4.7,0,4.7ZM76.98,20.02h3.33c1.39,0,2.43-.17,3.12-.51s1.04-1.01,1.04-2.02-.37-1.67-1.1-1.99c-.74-.32-1.91-.48-3.53-.48h-2.86v5.01s0-.01,0-.01Z" fill="#1e1e24"/>
      <path d="M93.55,2.39h4.85v8.92l8.21-8.92h6l-8.64,9.61c.75,1.04,2.12,2.97,4.14,5.8,2.01,2.83,3.51,4.94,4.51,6.33h-5.66l-6.37-8.58-2.18,2.43v6.16h-4.85V2.39h-.01Z" fill="#1e1e24"/>
      <path d="M130.59,4.33c1.52,1.3,2.29,3.29,2.29,5.97s-.78,4.65-2.35,5.89-3.95,1.87-7.17,1.87h-2.89v6.06h-4.85V2.39h7.68c3.34,0,5.77.65,7.29,1.94h0ZM127.03,12.88c.58-.65.87-1.61.87-2.86s-.38-2.15-1.13-2.67c-.76-.53-1.93-.79-3.53-.79h-2.77v7.31h3.26c1.62,0,2.71-.33,3.3-.98v-.01h0Z" fill="#1e1e24"/>
      <path d="M151.39,4.36c-1.63-1.65-3.9-2.47-6.83-2.47s-5.2.83-6.84,2.5c-1.63,1.67-2.45,4.1-2.45,7.31v12.41h4.85v-12.57c0-1.72.39-3.04,1.17-3.96s1.85-1.38,3.23-1.38,2.46.48,3.25,1.44c.79.97,1.18,2.32,1.18,4.06v12.41h4.88v-12.59c0-3.13-.81-5.52-2.44-7.17,0,0,0,.01,0,.01Z" fill="#1e1e24"/>
      <path d="M164.17,6.73c-.47.38-.7.89-.7,1.52s.29,1.13.86,1.51c.57.37,1.89.81,3.95,1.32,2.06.51,3.66,1.27,4.8,2.29s1.71,2.5,1.71,4.45-.73,3.53-2.19,4.74c-1.46,1.21-3.38,1.82-5.77,1.82-3.44,0-6.54-1.28-9.3-3.82l2.89-3.54c2.34,2.05,4.51,3.08,6.5,3.08.89,0,1.59-.19,2.1-.58.51-.38.76-.9.76-1.55s-.27-1.17-.81-1.55-1.61-.77-3.2-1.17c-2.53-.6-4.38-1.38-5.55-2.35-1.17-.96-1.76-2.48-1.76-4.54s.74-3.65,2.22-4.77,3.33-1.68,5.55-1.68c1.45,0,2.9.25,4.35.75,1.45.5,2.71,1.2,3.79,2.11l-2.46,3.54c-1.89-1.43-3.83-2.15-5.84-2.15-.81,0-1.45.19-1.91.58,0,0,.01-.01.01-.01Z" fill="#1e1e24"/>
      <path d="M184,6.73c-.47.38-.7.89-.7,1.52s.29,1.13.86,1.51c.57.37,1.89.81,3.95,1.32,2.06.51,3.66,1.27,4.8,2.29s1.71,2.5,1.71,4.45-.73,3.53-2.19,4.74c-1.46,1.21-3.38,1.82-5.77,1.82-3.44,0-6.54-1.28-9.3-3.82l2.89-3.54c2.34,2.05,4.51,3.08,6.5,3.08.89,0,1.59-.19,2.1-.58.51-.38.76-.9.76-1.55s-.27-1.17-.81-1.55-1.61-.77-3.2-1.17c-2.53-.6-4.38-1.38-5.55-2.35-1.17-.96-1.76-2.48-1.76-4.54s.74-3.65,2.22-4.77,3.33-1.68,5.55-1.68c1.45,0,2.9.25,4.35.75,1.45.5,2.71,1.2,3.79,2.11l-2.46,3.54c-1.89-1.43-3.83-2.15-5.84-2.15-.81,0-1.45.19-1.91.58,0,0,.01-.01.01-.01Z" fill="#1e1e24"/>
      <path d="M220.7,2.39v13.37c0,1.33-.26,2.35-.79,3.06-.54.72-1.29,1.08-2.29,1.08s-1.77-.36-2.32-1.08c-.57-.71-.85-1.73-.85-3.06l-.02-7.3h-4.93l-.02,7.3c0,1.33-.28,2.35-.84,3.06-.57.72-1.33,1.08-2.32,1.08s-1.74-.36-2.26-1.08c-.54-.71-.8-1.73-.8-3.06V2.39h-4.82v13.37c0,2.74.67,4.86,2,6.36,1.34,1.5,3.24,2.25,5.7,2.25s4.4-.97,5.83-2.92c.67.93,1.5,1.65,2.53,2.16,1.03.5,2.14.76,3.34.76,2.44,0,4.33-.75,5.68-2.25,1.33-1.5,2-3.63,2-6.36V2.39h-4.82,0Z" fill="#1e1e24"/>
      <path d="M249.06,21.12c-2.2,2.15-4.9,3.22-8.11,3.22s-5.92-1.07-8.11-3.22c-2.2-2.14-3.3-4.81-3.3-8.01s1.1-5.86,3.3-8.01,4.9-3.22,8.11-3.22,5.92,1.07,8.11,3.22c2.2,2.15,3.3,4.81,3.3,8.01s-1.1,5.86-3.3,8.01ZM247.41,13.13c0-1.94-.62-3.59-1.87-4.96-1.24-1.37-2.77-2.05-4.59-2.05s-3.34.68-4.59,2.05c-1.24,1.37-1.87,3.02-1.87,4.96s.62,3.59,1.87,4.94c1.24,1.36,2.77,2.04,4.59,2.04s3.34-.68,4.59-2.04c1.24-1.36,1.87-3.01,1.87-4.94Z" fill="#1e1e24"/>
      <path d="M274.08,9.6c0,3.48-1.38,5.73-4.14,6.75l5.5,7.77h-5.97l-4.82-6.93h-3.36v6.93h-4.85V2.39h8.24c3.38,0,5.79.57,7.23,1.71,1.44,1.14,2.16,2.97,2.16,5.5h.01ZM268.24,12.18c.6-.54.9-1.39.9-2.56s-.31-1.97-.93-2.41-1.71-.65-3.26-.65h-3.64v6.44h3.54c1.66,0,2.79-.27,3.39-.81v-.01Z" fill="#1e1e24"/>
      <path d="M295.66,5.23c2.07,1.9,3.11,4.53,3.11,7.91s-1.01,6.05-3.03,8.02-5.1,2.95-9.25,2.95h-7.43V2.39h7.68c3.88,0,6.85.95,8.92,2.84ZM292.1,18.15c1.19-1.12,1.79-2.75,1.79-4.88s-.6-3.78-1.79-4.93c-1.19-1.15-3.02-1.73-5.49-1.73h-2.7v13.21h3.08c2.22,0,3.92-.56,5.11-1.68v.01h0Z" fill="#1e1e24"/>
    </g>
    <g>
      <circle cx="12.99" cy="12.99" r="10.99" fill="none" stroke="#1e1e24" stroke-miterlimit="10" stroke-width="4"/>
      <line x1="23.98" y1="12.99" x2="48.07" y2="12.99" fill="none" stroke="#1e1e24" stroke-linecap="round" stroke-miterlimit="10" stroke-width="4"/>
      <line x1="45.61" y1="13.73" x2="45.61" y2="21.03" fill="none" stroke="#1e1e24" stroke-linecap="round" stroke-miterlimit="10" stroke-width="4"/>
      <line x1="39.91" y1="14.16" x2="39.91" y2="18.75" fill="none" stroke="#1e1e24" stroke-linecap="round" stroke-miterlimit="10" stroke-width="4"/>
    </g>
  </g>
  <circle cx="144.55" cy="16.11" r="2.5" fill="#78787c"/>
  <circle cx="211.98" cy="4.89" r="2.5" fill="#78787c"/>
</svg>